<?xml version="1.0" standalone="no"?>
<svg viewBox="0 0 200 200" xmlns="http://www.w3.org/2000/svg">
  <defs>
    <linearGradient id="grad1" x1="0%" y1="0%" x2="100%" y2="0%">
      <stop offset="0%" style="stop-color:rgb(255,255,0);stop-opacity:1" />
      <stop offset="100%" style="stop-color:rgb(255,0,0);stop-opacity:1" />
    </linearGradient>
  </defs>
  <path fill="url(#grad1)" d="M42.8,-58.5C57.5,-48.1,73.1,-38.5,81.2,-23.9C89.3,-9.4,90.1,10.1,83.5,26.2C77,42.3,63.1,55.1,48,62.2C32.9,69.4,16.4,70.9,0.8,69.8C-14.8,68.7,-29.6,64.9,-44.5,57.7C-59.5,50.5,-74.5,39.8,-75.1,27C-75.6,14.2,-61.8,-0.7,-56.6,-18.9C-51.4,-37.2,-54.9,-58.8,-46.9,-71.4C-39,-84,-19.5,-87.6,-2.7,-83.8C14,-80.1,28,-68.9,42.8,-58.5Z" transform="translate(100 100)" />
</svg>
