<svg class="animated" id="freepik_stories-get-in-touch" xmlns="http://www.w3.org/2000/svg" viewBox="0 0 500 500" version="1.1" xmlns:xlink="http://www.w3.org/1999/xlink" xmlns:svgjs="http://svgjs.com/svgjs"><style>svg#freepik_stories-get-in-touch:not(.animated) .animable {opacity: 0;}svg#freepik_stories-get-in-touch.animated #freepik--background-complete--inject-2 {animation: 1s 1 forwards cubic-bezier(.36,-0.01,.5,1.38) zoomIn;animation-delay: 0s;}svg#freepik_stories-get-in-touch.animated #freepik--Shadow--inject-2 {animation: 1s 1 forwards cubic-bezier(.36,-0.01,.5,1.38) slideRight;animation-delay: 0s;}svg#freepik_stories-get-in-touch.animated #freepik--character-2--inject-2 {animation: 1s 1 forwards cubic-bezier(.36,-0.01,.5,1.38) zoomIn,1.5s Infinite  linear wind;animation-delay: 0s,1s;}svg#freepik_stories-get-in-touch.animated #elz8hub53prbn {animation: 1s 1 forwards cubic-bezier(.36,-0.01,.5,1.38) slideLeft;animation-delay: 0s;}svg#freepik_stories-get-in-touch.animated #eltc44v165r3c {animation: 1s 1 forwards cubic-bezier(.36,-0.01,.5,1.38) slideLeft;animation-delay: 0.03333333333333333s;opacity: 0}svg#freepik_stories-get-in-touch.animated #elap5ovjn6f1i {animation: 1s 1 forwards cubic-bezier(.36,-0.01,.5,1.38) slideLeft;animation-delay: 0.06666666666666667s;opacity: 0}svg#freepik_stories-get-in-touch.animated #elysk1kye0q6k {animation: 1s 1 forwards cubic-bezier(.36,-0.01,.5,1.38) slideLeft;animation-delay: 0.1s;opacity: 0}svg#freepik_stories-get-in-touch.animated #elnxzaztp38sk {animation: 1s 1 forwards cubic-bezier(.36,-0.01,.5,1.38) slideLeft;animation-delay: 0.13333333333333333s;opacity: 0}svg#freepik_stories-get-in-touch.animated #elyr8ahp9ojfk {animation: 1s 1 forwards cubic-bezier(.36,-0.01,.5,1.38) slideLeft;animation-delay: 0.16666666666666666s;opacity: 0}svg#freepik_stories-get-in-touch.animated #el7xxlmw45o9g {animation: 1s 1 forwards cubic-bezier(.36,-0.01,.5,1.38) slideLeft;animation-delay: 0.2s;opacity: 0}svg#freepik_stories-get-in-touch.animated #el8975eyun5ew {animation: 1s 1 forwards cubic-bezier(.36,-0.01,.5,1.38) slideLeft;animation-delay: 0.23333333333333334s;opacity: 0}svg#freepik_stories-get-in-touch.animated #el3hc5fgzdn9f {animation: 1s 1 forwards cubic-bezier(.36,-0.01,.5,1.38) slideLeft;animation-delay: 0.26666666666666666s;opacity: 0}svg#freepik_stories-get-in-touch.animated #el6wy8bai34sf {animation: 1s 1 forwards cubic-bezier(.36,-0.01,.5,1.38) slideLeft;animation-delay: 0.3s;opacity: 0}svg#freepik_stories-get-in-touch.animated #elxvwncbfm9b {animation: 1s 1 forwards cubic-bezier(.36,-0.01,.5,1.38) slideLeft;animation-delay: 0.3333333333333333s;opacity: 0}svg#freepik_stories-get-in-touch.animated #elwylsxge0ahn {animation: 1s 1 forwards cubic-bezier(.36,-0.01,.5,1.38) slideLeft;animation-delay: 0.36666666666666664s;opacity: 0}svg#freepik_stories-get-in-touch.animated #elsjauec3msk {animation: 1s 1 forwards cubic-bezier(.36,-0.01,.5,1.38) slideLeft;animation-delay: 0.4s;opacity: 0}svg#freepik_stories-get-in-touch.animated #elo6oxfalci9 {animation: 1s 1 forwards cubic-bezier(.36,-0.01,.5,1.38) slideLeft;animation-delay: 0.43333333333333335s;opacity: 0}svg#freepik_stories-get-in-touch.animated #el9d0ing0pqe4 {animation: 1s 1 forwards cubic-bezier(.36,-0.01,.5,1.38) slideLeft;animation-delay: 0.4666666666666667s;opacity: 0}svg#freepik_stories-get-in-touch.animated #elf0wby5xulip {animation: 1s 1 forwards cubic-bezier(.36,-0.01,.5,1.38) slideLeft;animation-delay: 0.5s;opacity: 0}svg#freepik_stories-get-in-touch.animated #elfa50t3muc8 {animation: 1s 1 forwards cubic-bezier(.36,-0.01,.5,1.38) slideLeft;animation-delay: 0.5333333333333333s;opacity: 0}svg#freepik_stories-get-in-touch.animated #el8k6r4ri08f9 {animation: 1s 1 forwards cubic-bezier(.36,-0.01,.5,1.38) slideLeft;animation-delay: 0.5666666666666667s;opacity: 0}svg#freepik_stories-get-in-touch.animated #el0dk0a2e0c1yt {animation: 1s 1 forwards cubic-bezier(.36,-0.01,.5,1.38) slideLeft;animation-delay: 0.6s;opacity: 0}svg#freepik_stories-get-in-touch.animated #elibwmr17hl89 {animation: 1s 1 forwards cubic-bezier(.36,-0.01,.5,1.38) slideLeft;animation-delay: 0.6333333333333333s;opacity: 0}svg#freepik_stories-get-in-touch.animated #elpopobld19g8 {animation: 1s 1 forwards cubic-bezier(.36,-0.01,.5,1.38) slideLeft;animation-delay: 0.6666666666666666s;opacity: 0}svg#freepik_stories-get-in-touch.animated #elskd4sfpd1go {animation: 1s 1 forwards cubic-bezier(.36,-0.01,.5,1.38) slideLeft;animation-delay: 0.7s;opacity: 0}svg#freepik_stories-get-in-touch.animated #el1t340zadolk {animation: 1s 1 forwards cubic-bezier(.36,-0.01,.5,1.38) slideLeft;animation-delay: 0.7333333333333333s;opacity: 0}svg#freepik_stories-get-in-touch.animated #el0579tsf7t1uy {animation: 1s 1 forwards cubic-bezier(.36,-0.01,.5,1.38) slideLeft;animation-delay: 0.7666666666666666s;opacity: 0}svg#freepik_stories-get-in-touch.animated #el3a1qrfadrh9 {animation: 1s 1 forwards cubic-bezier(.36,-0.01,.5,1.38) slideLeft;animation-delay: 0.8s;opacity: 0}svg#freepik_stories-get-in-touch.animated #elhgp31p4mzjl {animation: 1s 1 forwards cubic-bezier(.36,-0.01,.5,1.38) slideLeft;animation-delay: 0.8333333333333334s;opacity: 0}svg#freepik_stories-get-in-touch.animated #elh9mhg40ad6m {animation: 1s 1 forwards cubic-bezier(.36,-0.01,.5,1.38) slideLeft;animation-delay: 0.8666666666666667s;opacity: 0}svg#freepik_stories-get-in-touch.animated #elqwelhxkai {animation: 1s 1 forwards cubic-bezier(.36,-0.01,.5,1.38) slideLeft;animation-delay: 0.9s;opacity: 0}svg#freepik_stories-get-in-touch.animated #elt4vtlaypnq {animation: 1s 1 forwards cubic-bezier(.36,-0.01,.5,1.38) slideLeft;animation-delay: 0.9333333333333333s;opacity: 0}svg#freepik_stories-get-in-touch.animated #eljatbhr0xcre {animation: 1s 1 forwards cubic-bezier(.36,-0.01,.5,1.38) slideLeft;animation-delay: 0.9666666666666667s;opacity: 0}svg#freepik_stories-get-in-touch.animated #freepik--Device--inject-2 {animation: 1s 1 forwards cubic-bezier(.36,-0.01,.5,1.38) slideLeft,1.5s Infinite  linear wind;animation-delay: 0s,1s;}svg#freepik_stories-get-in-touch.animated #freepik--character-1--inject-2 {animation: 1s 1 forwards cubic-bezier(.36,-0.01,.5,1.38) slideRight,1.5s Infinite  linear wind;animation-delay: 0s,1s;}            @keyframes zoomIn {                0% {                    opacity: 0;                    transform: scale(0.5);                }                100% {                    opacity: 1;                    transform: scale(1);                }            }                    @keyframes slideRight {                0% {                    opacity: 0;                    transform: translateX(30px);                }                100% {                    opacity: 1;                    transform: translateX(0);                }            }                    @keyframes wind {                0% {                    transform: rotate( 0deg );                }                25% {                    transform: rotate( 1deg );                }                75% {                    transform: rotate( -1deg );                }            }                    @keyframes slideLeft {                0% {                    opacity: 0;                    transform: translateX(-30px);                }                100% {                    opacity: 1;                    transform: translateX(0);                }            }        </style><g id="freepik--background-complete--inject-2" class="animable" style="transform-origin: 250px 228.23px;"><rect x="416.78" y="398.49" width="33.12" height="0.25" style="fill: rgb(235, 235, 235); transform-origin: 433.34px 398.615px;" id="elfqvq99bpoeu" class="animable"></rect><rect x="322.53" y="401.21" width="8.69" height="0.25" style="fill: rgb(235, 235, 235); transform-origin: 326.875px 401.335px;" id="eli1tsgeldmeo" class="animable"></rect><rect x="396.59" y="389.21" width="19.19" height="0.25" style="fill: rgb(235, 235, 235); transform-origin: 406.185px 389.335px;" id="eltqemw2yvkjo" class="animable"></rect><rect x="52.46" y="390.89" width="43.19" height="0.25" style="fill: rgb(235, 235, 235); transform-origin: 74.055px 391.015px;" id="eldke2c1p1n3q" class="animable"></rect><rect x="104.56" y="390.89" width="6.33" height="0.25" style="fill: rgb(235, 235, 235); transform-origin: 107.725px 391.015px;" id="ele0aqicyqnr" class="animable"></rect><rect x="131.47" y="395.11" width="93.68" height="0.25" style="fill: rgb(235, 235, 235); transform-origin: 178.31px 395.235px;" id="elcrww4zn7fsv" class="animable"></rect><path d="M237,337.8H43.92a5.71,5.71,0,0,1-5.71-5.71V60.66A5.71,5.71,0,0,1,43.92,55H237a5.71,5.71,0,0,1,5.71,5.71V332.09A5.71,5.71,0,0,1,237,337.8ZM43.92,55.2a5.47,5.47,0,0,0-5.46,5.46V332.09a5.47,5.47,0,0,0,5.46,5.46H237a5.47,5.47,0,0,0,5.46-5.46V60.66A5.47,5.47,0,0,0,237,55.2Z" style="fill: rgb(235, 235, 235); transform-origin: 140.46px 196.4px;" id="elqbwqvzbcjd" class="animable"></path><path d="M453.31,337.8H260.21a5.72,5.72,0,0,1-5.71-5.71V60.66A5.72,5.72,0,0,1,260.21,55h193.1A5.71,5.71,0,0,1,459,60.66V332.09A5.71,5.71,0,0,1,453.31,337.8ZM260.21,55.2a5.47,5.47,0,0,0-5.46,5.46V332.09a5.47,5.47,0,0,0,5.46,5.46h193.1a5.47,5.47,0,0,0,5.46-5.46V60.66a5.47,5.47,0,0,0-5.46-5.46Z" style="fill: rgb(235, 235, 235); transform-origin: 356.75px 196.4px;" id="elrlokx99jwec" class="animable"></path><rect y="382.4" width="500" height="0.25" style="fill: rgb(235, 235, 235); transform-origin: 250px 382.525px;" id="el3c2v7eklg2d" class="animable"></rect><path d="M377.83,215.16h58.29a11.19,11.19,0,0,0,10.23-15.67c-3.87-8.89-12.1-13.71-19.54-7-11.19,10-10.66-9.43-24.05-6.7-11.71,2.39-10.1,13.92-17.27,16.29S368.42,212.51,377.83,215.16Z" style="fill: rgb(250, 250, 250); transform-origin: 410.632px 200.342px;" id="elthhgek5ebwo" class="animable"></path><path d="M285.48,110.4H328A8.17,8.17,0,0,0,335.5,99c-2.83-6.49-8.84-10-14.26-5.14-8.17,7.34-7.79-6.88-17.56-4.88-8.55,1.74-7.37,10.16-12.61,11.88S278.62,108.46,285.48,110.4Z" style="fill: rgb(250, 250, 250); transform-origin: 309.418px 99.5925px;" id="elyc5yksigj8n" class="animable"></path><path d="M369.68,382.52h-7V158.67a22.75,22.75,0,0,1,22.72-22.73h6.19v7H385.4a15.74,15.74,0,0,0-15.72,15.73Z" style="fill: rgb(240, 240, 240); transform-origin: 377.135px 259.23px;" id="elcd3zpxy0pem" class="animable"></path><rect x="391.59" y="100" width="26.54" height="74.98" style="fill: rgb(235, 235, 235); transform-origin: 404.86px 137.49px;" id="el9dplm91ed35" class="animable"></rect><path d="M391.59,175h26.54a0,0,0,0,1,0,0v.14a5.17,5.17,0,0,1-5.17,5.17h-16.2a5.17,5.17,0,0,1-5.17-5.17V175A0,0,0,0,1,391.59,175Z" style="fill: rgb(230, 230, 230); transform-origin: 404.86px 177.655px;" id="eli15o0b27cvr" class="animable"></path><circle cx="404.86" cy="115.5" r="8.23" style="fill: rgb(240, 240, 240); transform-origin: 404.86px 115.5px;" id="eljk56bogzllr" class="animable"></circle><circle cx="404.86" cy="113.5" r="8.23" style="fill: rgb(250, 250, 250); transform-origin: 404.86px 113.5px;" id="elawtj92ktwpt" class="animable"></circle><circle cx="404.86" cy="138" r="8.23" style="fill: rgb(240, 240, 240); transform-origin: 404.86px 138px;" id="elbthrvcglpkr" class="animable"></circle><circle cx="404.86" cy="136" r="8.23" style="fill: rgb(250, 250, 250); transform-origin: 404.86px 136px;" id="el216izmv9deah" class="animable"></circle><circle cx="404.86" cy="160.5" r="8.23" style="fill: rgb(240, 240, 240); transform-origin: 404.86px 160.5px;" id="elhvuqyvw51kq" class="animable"></circle><circle cx="404.86" cy="158.5" r="8.23" style="fill: rgb(250, 250, 250); transform-origin: 404.86px 158.5px;" id="elu0691r11wtn" class="animable"></circle><rect x="390.72" y="317.05" width="46.19" height="20.16" style="fill: rgb(235, 235, 235); transform-origin: 413.815px 327.13px;" id="elgnaekic39a5" class="animable"></rect><rect x="387.5" y="314.26" width="6.43" height="25.74" style="fill: rgb(245, 245, 245); transform-origin: 390.715px 327.13px;" id="elsmubajidmhi" class="animable"></rect><rect x="433.69" y="314.26" width="6.43" height="25.74" style="fill: rgb(245, 245, 245); transform-origin: 436.905px 327.13px;" id="elntmou6ufp6d" class="animable"></rect><path d="M386.36,323.92h4.36a0,0,0,0,1,0,0v6.43a0,0,0,0,1,0,0h-4.36a2.08,2.08,0,0,1-2.08-2.08V326A2.08,2.08,0,0,1,386.36,323.92Z" style="fill: rgb(245, 245, 245); transform-origin: 387.5px 327.135px;" id="ell9pr9czoxqk" class="animable"></path><g id="el6f1hj98pr4h"><path d="M439,323.92h4.36a0,0,0,0,1,0,0v6.43a0,0,0,0,1,0,0H439a2.08,2.08,0,0,1-2.08-2.08V326A2.08,2.08,0,0,1,439,323.92Z" style="fill: rgb(245, 245, 245); transform-origin: 440.14px 327.135px; transform: rotate(180deg);" class="animable"></path></g><path d="M426.22,374H401.4V304.3a12.41,12.41,0,0,1,12.41-12.41h0a12.4,12.4,0,0,1,12.41,12.41Z" style="fill: rgb(245, 245, 245); transform-origin: 413.81px 332.945px;" id="el2mo23zmymfu" class="animable"></path><path d="M403.07,369.81h21.49A6.15,6.15,0,0,1,430.7,376v6.57a0,0,0,0,1,0,0H396.92a0,0,0,0,1,0,0V376A6.15,6.15,0,0,1,403.07,369.81Z" style="fill: rgb(235, 235, 235); transform-origin: 413.81px 376.19px;" id="elf108gz9d1we" class="animable"></path><circle cx="413.81" cy="327.09" r="10.62" style="fill: rgb(250, 250, 250); transform-origin: 413.81px 327.09px;" id="ellv1ofbv5v8s" class="animable"></circle><path d="M416.34,327.09a2.53,2.53,0,1,1-2.53-2.52A2.53,2.53,0,0,1,416.34,327.09Z" style="fill: rgb(235, 235, 235); transform-origin: 413.81px 327.1px;" id="eleemb770ieq" class="animable"></path><path d="M396.92,307.83h0a3.22,3.22,0,0,1,3.22-3.22h27.35a3.22,3.22,0,0,1,3.21,3.22h0a3.22,3.22,0,0,1-3.21,3.22H400.14A3.22,3.22,0,0,1,396.92,307.83Z" style="fill: rgb(240, 240, 240); transform-origin: 413.81px 307.83px;" id="elt2kxuwq31f" class="animable"></path><path d="M408.41,343.49h0a3.22,3.22,0,0,1,3.22,3.21v16.63a3.22,3.22,0,0,1-3.22,3.22h0a3.22,3.22,0,0,1-3.21-3.22V346.7A3.21,3.21,0,0,1,408.41,343.49Z" style="fill: rgb(235, 235, 235); transform-origin: 408.415px 355.02px;" id="elpi9uaf3w11e" class="animable"></path><path d="M419.21,343.49h0a3.22,3.22,0,0,1,3.22,3.21v16.63a3.22,3.22,0,0,1-3.22,3.22h0a3.22,3.22,0,0,1-3.21-3.22V346.7A3.21,3.21,0,0,1,419.21,343.49Z" style="fill: rgb(235, 235, 235); transform-origin: 419.215px 355.02px;" id="el0vealbotdtnk" class="animable"></path><path d="M72.05,382.67H69.59a1.27,1.27,0,0,1-1.27-1.32L71,320.92H77.3l-4,60.57A1.27,1.27,0,0,1,72.05,382.67Z" style="fill: rgb(240, 240, 240); transform-origin: 72.8095px 351.795px;" id="elw97k8o9zfe" class="animable"></path><path d="M82.38,382.67H79.92a1.26,1.26,0,0,1-1.26-1.32l2.65-60.43h6.32l-4,60.57A1.26,1.26,0,0,1,82.38,382.67Z" style="fill: rgb(240, 240, 240); transform-origin: 83.1443px 351.795px;" id="el0ramoeogoi6" class="animable"></path><path d="M111.08,382.67h2.46a1.27,1.27,0,0,0,1.27-1.32l-2.66-60.43h-6.32l4,60.57A1.26,1.26,0,0,0,111.08,382.67Z" style="fill: rgb(240, 240, 240); transform-origin: 110.32px 351.795px;" id="el41yc54lmznd" class="animable"></path><path d="M121.26,382.67h2.46a1.27,1.27,0,0,0,1.27-1.32l-2.65-60.43H116l4,60.57A1.26,1.26,0,0,0,121.26,382.67Z" style="fill: rgb(240, 240, 240); transform-origin: 120.495px 351.795px;" id="elaapqqx01xz" class="animable"></path><rect x="82.54" y="285.37" width="5.36" height="28.32" style="fill: rgb(240, 240, 240); transform-origin: 85.22px 299.53px;" id="elummm1vta6k" class="animable"></rect><rect x="106.24" y="285.37" width="5.36" height="28.32" style="fill: rgb(240, 240, 240); transform-origin: 108.92px 299.53px;" id="elxydb1qyxqy" class="animable"></rect><path d="M129.75,319.73c0,6.26-14.48,5.67-32.34,5.67s-32.35.59-32.35-5.67,14.48-11.34,32.35-11.34S129.75,313.46,129.75,319.73Z" style="fill: rgb(245, 245, 245); transform-origin: 97.405px 316.902px;" id="elvomc8gv6sd" class="animable"></path><path d="M112.79,288.45H82a9.32,9.32,0,0,1-9.29-8.59l-1-12.28a9.32,9.32,0,0,1,9.29-10h32.69a9.31,9.31,0,0,1,9.29,10l-1,12.28A9.31,9.31,0,0,1,112.79,288.45Z" style="fill: rgb(245, 245, 245); transform-origin: 97.3454px 273.015px;" id="el1yks6rt7v2s" class="animable"></path><rect x="68.53" y="172.12" width="36.33" height="28.64" style="fill: rgb(240, 240, 240); transform-origin: 86.695px 186.44px;" id="el0b2drfpnrvbb" class="animable"></rect><rect x="66.57" y="172.12" width="1.96" height="28.64" style="fill: rgb(224, 224, 224); transform-origin: 67.55px 186.44px;" id="elyf9kgs4u49" class="animable"></rect><rect x="72.23" y="175.04" width="28.92" height="22.8" style="fill: rgb(250, 250, 250); transform-origin: 86.69px 186.44px;" id="el7vvhb4jdllt" class="animable"></rect><rect x="74.62" y="176.92" width="24.16" height="19.05" style="fill: rgb(235, 235, 235); transform-origin: 86.7px 186.445px;" id="elkod9jf1nlgi" class="animable"></rect><rect x="112.35" y="125.64" width="39.99" height="50.71" style="fill: rgb(235, 235, 235); transform-origin: 132.345px 150.995px;" id="elsj867bmb5gp" class="animable"></rect><rect x="110.44" y="125.64" width="1.91" height="50.71" style="fill: rgb(224, 224, 224); transform-origin: 111.395px 150.995px;" id="elth87c021sw9" class="animable"></rect><rect x="116.43" y="130.81" width="31.83" height="40.37" style="fill: rgb(245, 245, 245); transform-origin: 132.345px 150.995px;" id="elpatowrlm3j" class="animable"></rect><rect x="119.05" y="134.14" width="26.59" height="33.73" style="fill: rgb(250, 250, 250); transform-origin: 132.345px 151.005px;" id="elq4cajtds43c" class="animable"></rect><path d="M127.08,146s4.7,6.65,7.12,6.54c2.21-.09,6-6.54,6-6.54s-4.7-6.65-7.12-6.54C130.84,139.59,127.08,146,127.08,146Z" style="fill: rgb(235, 235, 235); transform-origin: 133.64px 146px;" id="elkd7xlh2qjvk" class="animable"></path><path d="M139.38,160.76c1.39-2.68-5.87-8.31-8.89-8.18-2.77.12-8.54,5.63-7.46,8.18C124.61,164.53,137.5,164.39,139.38,160.76Z" style="fill: rgb(240, 240, 240); transform-origin: 131.226px 158.057px;" id="elex7qbbxj9av" class="animable"></path><ellipse cx="79.65" cy="131.84" rx="18.05" ry="25.17" style="fill: rgb(224, 224, 224); transform-origin: 79.65px 131.84px;" id="el1aa4uao7pzo" class="animable"></ellipse><ellipse cx="81.8" cy="131.84" rx="18.05" ry="25.17" style="fill: rgb(235, 235, 235); transform-origin: 81.8px 131.84px;" id="elfw1gs7kxfm" class="animable"></ellipse><ellipse cx="81.8" cy="131.84" rx="15.38" ry="21.44" style="fill: rgb(230, 230, 230); transform-origin: 81.8px 131.84px;" id="elwh97npyhlah" class="animable"></ellipse><ellipse cx="81.8" cy="131.84" rx="13.74" ry="19.16" style="fill: rgb(250, 250, 250); transform-origin: 81.8px 131.84px;" id="elgprzt771x7q" class="animable"></ellipse><path d="M86.11,142.25a13.77,13.77,0,0,0,4.24-10.66s-5.67-.67-5.5,8.83c0,0-6.39-6.63-4.5-10.83,3-6.57,3-6.57.86-10.67,0,0-5.57,2.25-3,9.83a23.6,23.6,0,0,0,.89,5.84s-5.61-5.38-7.42-1.86c0,0,3,5.69,7.42,3.33C79.07,136.06,84,144.77,86.11,142.25Z" style="fill: rgb(235, 235, 235); transform-origin: 81.024px 130.814px;" id="elsc3t6rb6o9o" class="animable"></path></g><g id="freepik--Shadow--inject-2" class="animable" style="transform-origin: 245.18px 412.39px;"><ellipse id="freepik--path--inject-2" cx="245.18" cy="412.39" rx="193.89" ry="11.32" style="fill: rgb(245, 245, 245); transform-origin: 245.18px 412.39px;" class="animable"></ellipse></g><g id="freepik--character-2--inject-2" class="animable" style="transform-origin: 340.926px 284.76px;"><path d="M321.78,195.61c-2.69-2.8-4.6-8-5.53-11.35L312,194.4a6.9,6.9,0,0,1,1.56,5.82c0,.09-.15,1.79-3,3.53,0,0,.51,10.26,6.62,8.81s9.43-13.63,9.43-13.63l.44-3.45S324.27,197.82,321.78,195.61Z" style="fill: rgb(255, 195, 189); transform-origin: 318.805px 198.48px;" id="el5emstjpdf54" class="animable"></path><g id="el3ax2mctzcil"><path d="M313.07,191.92l-1,2.48a7.39,7.39,0,0,1,1.58,3.33c2.8-3.3,3.11-8.64,3.11-8.64Z" style="opacity: 0.1; transform-origin: 314.415px 193.41px;" class="animable"></path></g><path d="M268.71,241.27s16.49.67,23.81-1.33,13.54-14.81,13.54-14.81l-8.35-4.61-8.3,12.35-20.68,3.31L262.79,232s-12-2.56-12-1,6.19,2.82,6.19,2.82.37,7.38,2.91,7.61S268.71,241.27,268.71,241.27Z" style="fill: rgb(255, 195, 189); transform-origin: 278.425px 231.011px;" id="elegqdmzfofzc" class="animable"></path><path d="M309.07,206s-7.14,1-11.81,9.65-.68,9,3.27,11.44,5.93,3,7.75-2.34S313.69,205.45,309.07,206Z" style="fill: rgb(239, 117, 140); transform-origin: 303.243px 217.43px;" id="el7s38vd2g7q9" class="animable"></path><g id="elzde230plgng"><path d="M309.05,222.31l-2.65-5.4-4.45-.34a75.15,75.15,0,0,0,.23,11.46c2.89,1.51,4.56,1.21,6.1-3.3C308.51,224.05,308.78,223.23,309.05,222.31Z" style="opacity: 0.1; transform-origin: 305.441px 222.709px;" class="animable"></path></g><path d="M294.83,171.54s-5.2,1.84-1.76,7.13-3.5,8.89,8.15,10.35.41-19.61.41-19.61Z" style="fill: rgb(38, 50, 56); transform-origin: 299.2px 179.251px;" id="elzbzu5lcnbqp" class="animable"></path><g id="elt7m2xo0u97b"><path d="M294.83,171.54s-5.2,1.84-1.76,7.13-3.5,8.89,8.15,10.35.41-19.61.41-19.61Z" style="opacity: 0.3; transform-origin: 299.2px 179.251px;" class="animable"></path></g><path d="M339.62,204.74c-1.74-11.32-8.33-11.12-14.75-8.59.45,4.26.46,9.7-5.71,13.09-5.55,3-7.71-2-7.83-6.22-5.82,3.31-10.68,7.55-9.09,16,.91,4.8,5.15,10.07,9.49,16.76,5.19,8,10.53,17.08,10.53,17.08l29.66-15.1S341.51,217,339.62,204.74Z" style="fill: rgb(239, 117, 140); transform-origin: 326.927px 223.798px;" id="elisittxkleu9" class="animable"></path><g id="el8e13rx9cybd"><path d="M339.62,204.74a21.7,21.7,0,0,0-1.07-4.28l-4.49-.76-2.34,3.72s4.95,8.72,11.53,14.23A72.41,72.41,0,0,1,339.62,204.74Z" style="opacity: 0.2; transform-origin: 337.485px 208.675px;" class="animable"></path></g><path d="M347.55,201.14s10.18,7,13.29,9.65c4.63,4,17.1,17.47,17.1,17.47l7.65,4.18v4.84l-3.62,2.5a2.42,2.42,0,0,1-3.39-.65l-4.64-6.93s-11.44-10.45-15.65-13.43c-3.56-2.52-15.1-8.71-15.1-8.71Z" style="fill: rgb(255, 195, 189); transform-origin: 364.39px 220.674px;" id="elpgvsucoj6yj" class="animable"></path><path d="M328.76,195.1s6.56-2.95,12.15,0,8.06,4.57,7.51,8.13-2.6,10.92-6.28,9.7S326.72,200.06,328.76,195.1Z" style="fill: rgb(239, 117, 140); transform-origin: 338.509px 203.427px;" id="el4s18ek092i" class="animable"></path><path d="M317.8,175.82c.76,7.67,1.25,10.89-1.95,15.4-4.82,6.79-14.4,6.05-17.43-1.23-2.74-6.56-3.52-18,3.42-22.2a10.49,10.49,0,0,1,16,8Z" style="fill: rgb(255, 195, 189); transform-origin: 307.397px 181.055px;" id="elvbf98u3upgo" class="animable"></path><path d="M301.69,181.68a16.77,16.77,0,0,1-1.56,4.3,2.67,2.67,0,0,0,2.26.07Z" style="fill: rgb(237, 137, 62); transform-origin: 301.26px 183.974px;" id="el2jk40p1vl93" class="animable"></path><path d="M306.81,176.56a.29.29,0,0,0,.11-.11.31.31,0,0,0-.11-.41h0a3.56,3.56,0,0,0-3.28-.21.32.32,0,0,0-.13.42.3.3,0,0,0,.4.13,3,3,0,0,1,2.72.2A.29.29,0,0,0,306.81,176.56Z" style="fill: rgb(38, 50, 56); transform-origin: 305.162px 176.068px;" id="elp4cdeinewxs" class="animable"></path><path d="M295.36,178.5l.13-.1a3,3,0,0,1,2.47-1.1.31.31,0,0,0,.35-.26h0a.33.33,0,0,0-.28-.34,3.62,3.62,0,0,0-3,1.32.31.31,0,0,0,0,.43.33.33,0,0,0,.33.06Z" style="fill: rgb(38, 50, 56); transform-origin: 296.627px 177.612px;" id="el4jn3asu6s7k" class="animable"></path><path d="M305.89,180c.1.61-.15,1.16-.56,1.23s-.81-.37-.9-1,.14-1.16.54-1.23S305.78,179.34,305.89,180Z" style="fill: rgb(38, 50, 56); transform-origin: 305.161px 180.115px;" id="elqicn8l9eesl" class="animable"></path><path d="M298.9,181.09c.1.61-.15,1.16-.55,1.23s-.8-.38-.91-1,.15-1.17.55-1.23S298.81,180.46,298.9,181.09Z" style="fill: rgb(38, 50, 56); transform-origin: 298.168px 181.206px;" id="elq1nm87kwnw" class="animable"></path><path d="M298.17,180.09l-1.55-.18S297.57,180.94,298.17,180.09Z" style="fill: rgb(38, 50, 56); transform-origin: 297.395px 180.168px;" id="el2a2is42rvgj" class="animable"></path><path d="M305.16,179l-1.55-.18S304.56,179.81,305.16,179Z" style="fill: rgb(38, 50, 56); transform-origin: 304.385px 179.069px;" id="eld7ffqlwpxd7" class="animable"></path><path d="M307.38,188.89a6.64,6.64,0,0,0,1.08-.66.22.22,0,0,0,.05-.31h0a.23.23,0,0,0-.31,0,6,6,0,0,1-5.32,1,.22.22,0,0,0-.29.12.21.21,0,0,0,.13.29A6.23,6.23,0,0,0,307.38,188.89Z" style="fill: rgb(38, 50, 56); transform-origin: 305.562px 188.726px;" id="eljpzorkoltyi" class="animable"></path><path d="M301.26,171.62c-3,.36-11,2.64-9.73-4.82s15.56-11.19,22.2-6.37,11.74,4.46,17,.55,7.82-2.37,14.56,1.27c0,0-3.64,6.28-1.91,10.1,0,0-4-4-11.47.27,0,0,8.64-2.29,11.92,3.68,0,0-.91,6.59,2.27,10.51s-.09,8.56-12.28,3.83-13.49-.39-16.3-2.48-4.92-7.75-5.36-11.86C311.88,173.34,310.55,170.52,301.26,171.62Z" style="fill: rgb(38, 50, 56); transform-origin: 319.318px 175.454px;" id="eld3ems0jyzsj" class="animable"></path><path d="M318.85,181.09a5.62,5.62,0,0,1-2.15,3.73c-1.57,1.18-3.08,0-3.24-1.91-.15-1.67.49-4.31,2.36-4.77a2.54,2.54,0,0,1,3,3Z" style="fill: rgb(255, 195, 189); transform-origin: 316.156px 181.69px;" id="elem1929c7aa" class="animable"></path><path d="M359,393c.26,6.39.45,11.46.45,11.46l-7.1.81s-.68-4.32-1.7-10.95Z" style="fill: rgb(255, 195, 189); transform-origin: 355.05px 399.135px;" id="elltzvftuygw" class="animable"></path><path d="M349.23,403.73a3,3,0,0,1-2.12-.4.63.63,0,0,1,0-.73.82.82,0,0,1,.5-.43c1.17-.4,3.73.85,3.84.91a.18.18,0,0,1,.1.17.16.16,0,0,1-.13.14A12.14,12.14,0,0,1,349.23,403.73Zm-1.21-1.3a.87.87,0,0,0-.32.06.45.45,0,0,0-.32.25c-.11.22-.06.32,0,.37.36.44,2.15.34,3.46.09A7.9,7.9,0,0,0,348,402.43Z" style="fill: rgb(239, 117, 140); transform-origin: 349.272px 402.935px;" id="ely5q4jauh9m" class="animable"></path><path d="M351.36,403.39h-.07c-.87-.32-2.67-1.75-2.57-2.56,0-.19.13-.43.59-.51a1.23,1.23,0,0,1,1,.23,4.74,4.74,0,0,1,1.27,2.67.14.14,0,0,1-.18.17Zm-1.92-2.76h-.09c-.3,0-.32.17-.32.21,0,.48,1.18,1.62,2.09,2.08a3.93,3.93,0,0,0-1.08-2.11.91.91,0,0,0-.6-.18Z" style="fill: rgb(239, 117, 140); transform-origin: 350.151px 401.846px;" id="el3lt8u60sxxd" class="animable"></path><path d="M352.05,402.35l7.74-.49a.62.62,0,0,1,.64.45l1.81,6.21a1,1,0,0,1-.7,1.29.85.85,0,0,1-.22,0c-2.79.13-5.29.14-8.76.36-4.1.27-3,.69-7.85,1.07-2.9.22-3.64-3-2.42-3.29,5.59-1.07,6.07-2.81,8.11-5A2.59,2.59,0,0,1,352.05,402.35Z" style="fill: rgb(38, 50, 56); transform-origin: 352.01px 406.555px;" id="el7osnknqbj0g" class="animable"></path><path d="M354.7,242.18l-1.35-4.85a1,1,0,0,0-1.38-.61L321.71,252a1,1,0,0,0-.36,1.43l3.06,4.45S331.92,309,335,326c3.18,17.33,14.56,69.19,14.56,69.19a.72.72,0,0,0,.83.57l8.81-1.42a.73.73,0,0,0,.61-.7c.1-4.42,0-32.36-2.78-52.13-1-7.06-3.38-12.72-4.19-16.61-.89-4.29.49-7.17,1-17.5C354.94,288,356.16,257.3,354.7,242.18Z" style="fill: rgb(38, 50, 56); transform-origin: 340.509px 316.198px;" id="el00kpvlxzqolqg" class="animable"></path><g id="elcoplvf0f6hp"><path d="M353.91,307.44c.35-6.51.71-14.27,1-22.29l-8.78-14.8-3.91-8.74-3.7,5s6.54,27.51,15.13,44.79C353.74,310.24,353.84,308.92,353.91,307.44Z" style="opacity: 0.5; transform-origin: 346.715px 286.505px;" class="animable"></path></g><path d="M420.5,368.54c3.68,5.23,6.07,8.67,6.07,8.67L421,381.73l-7.36-8.28Z" style="fill: rgb(255, 195, 189); transform-origin: 420.105px 375.135px;" id="elj9z2kem73hi" class="animable"></path><path d="M417.16,382.08a3,3,0,0,1-2,.81.63.63,0,0,1-.43-.6.88.88,0,0,1,.19-.63c.77-1,3.6-1.3,3.73-1.32a.16.16,0,0,1,.17.1.17.17,0,0,1,0,.19A13.2,13.2,0,0,1,417.16,382.08Zm-1.73-.44a1.26,1.26,0,0,0-.24.22.51.51,0,0,0-.12.39c0,.24.12.3.19.32.54.17,2-.88,3-1.8A7.77,7.77,0,0,0,415.43,381.64Z" style="fill: rgb(239, 117, 140); transform-origin: 416.788px 381.614px;" id="el26vxhewphz7" class="animable"></path><path d="M418.77,380.64l-.06,0c-.91.2-3.2,0-3.55-.76-.1-.17-.13-.44.22-.75a1.25,1.25,0,0,1,.92-.33,4.83,4.83,0,0,1,2.53,1.56.17.17,0,0,1,0,.17A.2.2,0,0,1,418.77,380.64Zm-3.11-1.28-.08.05c-.23.2-.18.31-.16.35.25.41,1.87.72,2.89.61a4.06,4.06,0,0,0-2.06-1.19.9.9,0,0,0-.59.18Z" style="fill: rgb(239, 117, 140); transform-origin: 416.973px 379.755px;" id="eld4ur5mm0175" class="animable"></path><path d="M418.78,379.4l6.25-4.61a.62.62,0,0,1,.78,0l4.87,4.25a1,1,0,0,1,.12,1.46,1.1,1.1,0,0,1-.16.15c-2.28,1.62-4.38,3-7.18,5.05-3.3,2.44-2.17,2.22-6,5.14-2.32,1.76-4.71-.59-3.82-1.45,4.13-3.93,3.59-5.65,4.14-8.57A2.52,2.52,0,0,1,418.78,379.4Z" style="fill: rgb(38, 50, 56); transform-origin: 422.255px 383.065px;" id="elsikuwdbmze" class="animable"></path><path d="M332.54,254.52s23.17,53.41,34.12,69.33c9.73,14.14,46.67,50.32,46.67,50.32a1.56,1.56,0,0,0,2.15.13l5.13-4.36a1.57,1.57,0,0,0,.32-2c-3.15-5.13-16.41-26.46-28.05-40.34-4.64-5.53-9.1-9.59-11.3-12.64-2.89-4-2.21-7.26-4.5-18.45-4.26-20.81-12.56-51.41-25.16-56.3Z" style="fill: rgb(38, 50, 56); transform-origin: 376.848px 307.439px;" id="elmp04ohhhx39" class="animable"></path></g><g id="freepik--Device--inject-2" class="animable" style="transform-origin: 252.021px 272.496px;"><g id="elz8hub53prbn"><path d="M287.81,405.43H193.42a10.66,10.66,0,0,1-10.79-11.82l20.74-237a13.16,13.16,0,0,1,12.86-11.83h94.39a10.66,10.66,0,0,1,10.79,11.83l-20.74,237A13.16,13.16,0,0,1,287.81,405.43Z" style="fill: rgb(239, 117, 140); opacity: 0.3; transform-origin: 252.021px 275.105px;" class="animable"></path></g><path d="M310.62,144.74H216.23a13.16,13.16,0,0,0-12.86,11.83l-20.74,237a10.66,10.66,0,0,0,10.79,11.82h94.39a13.16,13.16,0,0,0,12.86-11.82l20.74-237A10.66,10.66,0,0,0,310.62,144.74Zm-15.2,248.87a7.32,7.32,0,0,1-7.15,6.57H193.88a5.93,5.93,0,0,1-6-6.57l20.74-237a7.32,7.32,0,0,1,7.15-6.58h94.39a5.93,5.93,0,0,1,6,6.58Z" style="fill: rgb(239, 117, 140); transform-origin: 252.021px 275.065px;" id="eltc44v165r3c" class="animable"></path><g id="elap5ovjn6f1i"><path d="M310.62,144.74H216.23a13.16,13.16,0,0,0-12.86,11.83l-20.74,237a10.66,10.66,0,0,0,10.79,11.82h94.39a13.16,13.16,0,0,0,12.86-11.82l20.74-237A10.66,10.66,0,0,0,310.62,144.74Zm-15.2,248.87a7.32,7.32,0,0,1-7.15,6.57H193.88a5.93,5.93,0,0,1-6-6.57l20.74-237a7.32,7.32,0,0,1,7.15-6.58h94.39a5.93,5.93,0,0,1,6,6.58Z" style="fill: rgb(255, 255, 255); opacity: 0.6; transform-origin: 252.021px 275.065px;" class="animable"></path></g><path d="M254.79,390.79h-26a1.62,1.62,0,0,0-1.58,1.46,1.31,1.31,0,0,0,1.33,1.45h26a1.62,1.62,0,0,0,1.59-1.45A1.32,1.32,0,0,0,254.79,390.79Z" style="fill: rgb(255, 255, 255); transform-origin: 241.67px 392.245px;" id="elysk1kye0q6k" class="animable"></path><g id="elnxzaztp38sk"><path d="M254.15,255H226.63a6.22,6.22,0,0,1-6.3-6.9l2.41-27.53a7.68,7.68,0,0,1,7.5-6.9h27.53a6.23,6.23,0,0,1,6.3,6.9l-2.41,27.53A7.68,7.68,0,0,1,254.15,255Z" style="opacity: 0.1; transform-origin: 242.199px 234.335px;" class="animable"></path></g><path d="M251.15,252H223.63a6.22,6.22,0,0,1-6.3-6.9l2.41-27.53a7.68,7.68,0,0,1,7.5-6.9h27.53a6.23,6.23,0,0,1,6.3,6.9l-2.41,27.53A7.68,7.68,0,0,1,251.15,252Z" style="fill: rgb(239, 117, 140); transform-origin: 239.199px 231.335px;" id="elyr8ahp9ojfk" class="animable"></path><path d="M243.82,228.82c.47-5.34-4-9.66-10.1-9.66s-11.32,4.32-11.78,9.66c-.37,4.21,2.38,7.79,6.53,9.1a5.92,5.92,0,0,1-2.62,2.59,3.68,3.68,0,0,0,.63.31,5.07,5.07,0,0,0,6-2.37C238.32,238.25,243.37,234,243.82,228.82Z" style="fill: rgb(255, 255, 255); transform-origin: 232.88px 230.113px;" id="el7xxlmw45o9g" class="animable"></path><path d="M256.49,233.44c.39-4.4-3.34-8-8.33-8a10.58,10.58,0,0,0-2.6.33,10.42,10.42,0,0,1,.19,3,12.44,12.44,0,0,1-6,9.29,8.46,8.46,0,0,0,6.38,3.27,3.26,3.26,0,0,0,4.22,1.89,4.83,4.83,0,0,0,.52-.23,3.58,3.58,0,0,1-1.61-1.94C253.13,240.15,256.17,237.09,256.49,233.44Z" style="fill: rgb(255, 255, 255); transform-origin: 248.134px 234.439px;" id="el8975eyun5ew" class="animable"></path><g id="el3hc5fgzdn9f"><path d="M241.53,340.2H221.06a4.63,4.63,0,0,1-4.69-5.13l1.79-20.47a5.72,5.72,0,0,1,5.59-5.14h20.47a4.63,4.63,0,0,1,4.69,5.14l-1.79,20.47A5.71,5.71,0,0,1,241.53,340.2Z" style="opacity: 0.1; transform-origin: 232.641px 324.83px;" class="animable"></path></g><g id="el6wy8bai34sf"><path d="M271.57,300.36H246a5.78,5.78,0,0,1-5.85-6.42l2.23-25.59a7.15,7.15,0,0,1,7-6.42h25.6a5.79,5.79,0,0,1,5.85,6.42l-2.23,25.59A7.15,7.15,0,0,1,271.57,300.36Z" style="opacity: 0.1; transform-origin: 260.489px 281.145px;" class="animable"></path></g><path d="M268.57,297.36H243a5.78,5.78,0,0,1-5.85-6.42l2.23-25.59a7.15,7.15,0,0,1,7-6.42h25.6a5.79,5.79,0,0,1,5.85,6.42l-2.23,25.59A7.15,7.15,0,0,1,268.57,297.36Z" style="fill: rgb(239, 117, 140); transform-origin: 257.489px 278.145px;" id="elxvwncbfm9b" class="animable"></path><path d="M238.53,337.2H218.06a4.63,4.63,0,0,1-4.69-5.13l1.79-20.47a5.72,5.72,0,0,1,5.59-5.14h20.47a4.63,4.63,0,0,1,4.69,5.14l-1.79,20.47A5.71,5.71,0,0,1,238.53,337.2Z" style="fill: rgb(239, 117, 140); transform-origin: 229.641px 321.83px;" id="elwylsxge0ahn" class="animable"></path><path d="M270.25,267.59H246.5a3,3,0,0,0-3,2.73L242.17,286a2.46,2.46,0,0,0,2.49,2.72H268.4a3,3,0,0,0,3-2.72l1.37-15.66A2.46,2.46,0,0,0,270.25,267.59Zm-18.19,10.54-7.95,7.31,1.28-14.62Zm-5.22-8.65h22.73l-11.49,10.57a1.12,1.12,0,0,1-1.59,0Zm6.44,10,1.75,1.92a2.76,2.76,0,0,0,2.06.88,3.27,3.27,0,0,0,2.21-.88l2.09-1.92,6.7,7.34H245.3Zm9.56-1.34,8-7.31-1.28,14.62Z" style="fill: rgb(255, 255, 255); transform-origin: 257.472px 278.155px;" id="elsjauec3msk" class="animable"></path><polygon points="220.25 316.32 226.25 318.76 232.85 314.24 227.89 320.11 231.53 325.25 237.3 310.93 220.25 316.32" style="fill: rgb(255, 255, 255); transform-origin: 228.775px 318.09px;" id="elo6oxfalci9" class="animable"></polygon><polygon points="225.84 320.12 228.54 323.42 225.66 323.42 225.84 320.12" style="fill: rgb(255, 255, 255); transform-origin: 227.1px 321.77px;" id="el9d0ing0pqe4" class="animable"></polygon><path d="M223.45,324.43l-.63-.4a7.58,7.58,0,0,1,.61-.85l.57.49A6.86,6.86,0,0,0,223.45,324.43Z" style="fill: rgb(255, 255, 255); transform-origin: 223.41px 323.805px;" id="elf0wby5xulip" class="animable"></path><path d="M223.15,329.36a2.72,2.72,0,0,1-1.29-1.6l.72-.2a2,2,0,0,0,1,1.15Zm-.63-2.58-.75-.06a5.36,5.36,0,0,1,.57-1.87l.68.34A4.52,4.52,0,0,0,222.52,326.78Z" style="fill: rgb(255, 255, 255); transform-origin: 222.675px 327.105px;" id="elfa50t3muc8" class="animable"></path><path d="M238.27,332l-.74-.13a2.74,2.74,0,0,0,.05-.55,1.3,1.3,0,0,0-.27-.89l.58-.48a2.12,2.12,0,0,1,.44,1.37A4.27,4.27,0,0,1,238.27,332Zm-10.63-1.73-.78,0,0-.75a17.86,17.86,0,0,0,1.79,0l0,.75Zm2-.08,0-.75c.61,0,1.22-.1,1.81-.16l.07.75Zm-3.71,0-.31,0a8.68,8.68,0,0,1-1.55-.35l.24-.71a7.35,7.35,0,0,0,1.41.32l.29,0Zm10.8-.15a5,5,0,0,0-1.66-.24V329a5.6,5.6,0,0,1,1.93.29Zm-4.35-.09-.07-.75c.64-.06,1.26-.11,1.83-.14l0,.75C233.61,329.81,233,329.86,232.37,329.92Z" style="fill: rgb(255, 255, 255); transform-origin: 231.201px 330.499px;" id="el8k6r4ri08f9" class="animable"></path><path d="M237.65,333.9l-.69-.3c.14-.32.26-.63.35-.9l.71.23C237.92,333.23,237.8,333.55,237.65,333.9Z" style="fill: rgb(255, 255, 255); transform-origin: 237.49px 333.3px;" id="el0dk0a2e0c1yt" class="animable"></path><g id="elibwmr17hl89"><path d="M265.4,208.07h-23a5.21,5.21,0,0,1-5.27-5.78l2-23a6.43,6.43,0,0,1,6.28-5.78h23a5.21,5.21,0,0,1,5.27,5.78l-2,23A6.43,6.43,0,0,1,265.4,208.07Z" style="opacity: 0.1; transform-origin: 255.405px 190.79px;" class="animable"></path></g><path d="M262.4,205.07h-23a5.21,5.21,0,0,1-5.27-5.78l2-23a6.43,6.43,0,0,1,6.28-5.78h23a5.21,5.21,0,0,1,5.27,5.78l-2,23A6.43,6.43,0,0,1,262.4,205.07Z" style="fill: rgb(239, 117, 140); transform-origin: 252.405px 187.79px;" id="elpopobld19g8" class="animable"></path><path d="M263.63,192.47a17.12,17.12,0,0,0-14.91-16.34,5.68,5.68,0,0,0-7,1.62c-2,2.43-.22,4,2,5.74s4.21,3.07,6.18.64a5.8,5.8,0,0,0,1.31-3.13,13.43,13.43,0,0,1,7.77,8.52,5.77,5.77,0,0,0-3.22,1c-2.59,1.76-1.45,3.81.1,6.24s2.93,4.31,5.51,2.54A5.72,5.72,0,0,0,263.63,192.47Z" style="fill: rgb(255, 255, 255); transform-origin: 252.424px 187.771px;" id="elskd4sfpd1go" class="animable"></path><path d="M254,140.76H269.7c.78,0,.88-1.2.11-1.2H254.13c-.77,0-.88,1.2-.11,1.2Z" style="fill: rgb(239, 117, 140); transform-origin: 261.917px 140.16px;" id="el1t340zadolk" class="animable"></path><path d="M275.45,140.76H280c.78,0,.88-1.2.11-1.2h-4.51c-.77,0-.88,1.2-.1,1.2Z" style="fill: rgb(239, 117, 140); transform-origin: 277.802px 140.16px;" id="el0579tsf7t1uy" class="animable"></path><g id="el3a1qrfadrh9"><g style="opacity: 0.3; transform-origin: 261.917px 140.16px;" class="animable"><path d="M254,140.76H269.7c.78,0,.88-1.2.11-1.2H254.13c-.77,0-.88,1.2-.11,1.2Z" style="fill: rgb(255, 255, 255); transform-origin: 261.917px 140.16px;" id="el8do6ebeqbtv" class="animable"></path></g></g><g id="elhgp31p4mzjl"><g style="opacity: 0.3; transform-origin: 277.802px 140.16px;" class="animable"><path d="M275.45,140.76H280c.78,0,.88-1.2.11-1.2h-4.51c-.77,0-.88,1.2-.1,1.2Z" style="fill: rgb(255, 255, 255); transform-origin: 277.802px 140.16px;" id="el11xdhmmo6rye" class="animable"></path></g></g><path d="M305.7,262.07l-1.38,15.68a.6.6,0,0,0,1.2.1q.68-7.83,1.37-15.68a.6.6,0,0,0-1.19-.1Z" style="fill: rgb(239, 117, 140); transform-origin: 305.604px 269.989px;" id="elh9mhg40ad6m" class="animable"></path><path d="M303.82,283.49l-.39,4.51a.6.6,0,0,0,1.19.1l.39-4.5a.6.6,0,0,0-1.19-.11Z" style="fill: rgb(239, 117, 140); transform-origin: 304.22px 285.795px;" id="elqwelhxkai" class="animable"></path><g id="elt4vtlaypnq"><g style="opacity: 0.3; transform-origin: 305.604px 269.989px;" class="animable"><path d="M305.7,262.07l-1.38,15.68a.6.6,0,0,0,1.2.1q.68-7.83,1.37-15.68a.6.6,0,0,0-1.19-.1Z" style="fill: rgb(255, 255, 255); transform-origin: 305.604px 269.989px;" id="el37lf1r1ctz" class="animable"></path></g></g><g id="eljatbhr0xcre"><g style="opacity: 0.3; transform-origin: 304.22px 285.795px;" class="animable"><path d="M303.82,283.49l-.39,4.51a.6.6,0,0,0,1.19.1l.39-4.5a.6.6,0,0,0-1.19-.11Z" style="fill: rgb(255, 255, 255); transform-origin: 304.22px 285.795px;" id="el7bo4y5wwnj" class="animable"></path></g></g></g><g id="freepik--character-1--inject-2" class="animable" style="transform-origin: 150.145px 284.384px;"><path d="M166.85,192.29s-5.8-.79-5.1,2.23C162.26,196.72,164.21,192.39,166.85,192.29Z" style="fill: rgb(38, 50, 56); transform-origin: 164.271px 193.67px;" id="elre59z7z2uh" class="animable"></path><path d="M161.81,199.15s4.78-.05,5.52-8.76c0,0,4.56-1.59,7.15,1.25s-3.36,8.34-.08,11.2C174.4,202.84,171.12,204.63,161.81,199.15Z" style="fill: rgb(255, 139, 123); transform-origin: 168.482px 196.533px;" id="el1mqtgtaamfo" class="animable"></path><path d="M179.5,168.38s6.16-1.32,7.76,3.21-9.12,2.54-9.12,2.54Z" style="fill: rgb(38, 50, 56); transform-origin: 182.781px 171.383px;" id="el02ko4c1u66c8" class="animable"></path><g id="elg5tecppi8v"><path d="M179.5,168.38s6.16-1.32,7.76,3.21-9.12,2.54-9.12,2.54Z" style="opacity: 0.3; transform-origin: 182.781px 171.383px;" class="animable"></path></g><path d="M184.54,179.67c.1-.58.48-1,.86-.93s.61.58.51,1.16-.49,1-.86.94S184.44,180.25,184.54,179.67Z" style="fill: rgb(38, 50, 56); transform-origin: 185.225px 179.789px;" id="el9a3i7730lfw" class="animable"></path><path d="M184.84,180.76l2.69,4.36a3.82,3.82,0,0,1-3.44.29Z" style="fill: rgb(255, 86, 82); transform-origin: 185.81px 183.225px;" id="el4zq9xg9upqp" class="animable"></path><path d="M164.47,176.87c-.34,7.41-.64,10.55,2.67,14.72,5.27,4.46,14.17,5.08,16.71-2.09,2.29-6.44,2.46-17.45-4.44-21.19a10.12,10.12,0,0,0-14.94,8.56Z" style="fill: rgb(255, 139, 123); transform-origin: 174.771px 181.005px;" id="elek1o7uw0ejq" class="animable"></path><path d="M183.61,177.84a.33.33,0,0,0,.32,0,2.74,2.74,0,0,1,2.44-.44.34.34,0,0,0,.44-.19.35.35,0,0,0-.19-.45,3.39,3.39,0,0,0-3.09.52.33.33,0,0,0-.1.46v0A.3.3,0,0,0,183.61,177.84Z" style="fill: rgb(38, 50, 56); transform-origin: 185.105px 177.238px;" id="elrnr2f3fw7v" class="animable"></path><path d="M158.45,200.65s2.06-5.69,10.59-2.06,9.33,8.63,9.33,8.63Z" style="fill: rgb(38, 50, 56); transform-origin: 168.41px 202.3px;" id="elupopiaafkjn" class="animable"></path><g id="el282f1shtgn2"><path d="M158.45,200.65s2.06-5.69,10.59-2.06,9.33,8.63,9.33,8.63Z" style="opacity: 0.4; transform-origin: 168.41px 202.3px;" class="animable"></path></g><path d="M162.28,308.49s-1.21,10.37-1.79,13.8c-.52,3-17,81.7-17,81.7L136,402.75s-.83-39.87,4.94-66.26c1.19-5.4,3.58-9.92,4.45-14.05.7-3.31-.36-13.55-.36-13.55Z" style="fill: rgb(255, 139, 123); transform-origin: 149.119px 356.24px;" id="el4g5yvkbqsj6" class="animable"></path><path d="M131,306.8s-3.49,9.5-5.12,12.44c-1.77,3.2-8.49,11.91-8.49,11.91l-35.8,50.23-6.85-4.33s10.33-27.66,25.89-50.18c3.71-5.37,9.05-9.46,12-14.79,1.67-3.06,3.09-13.62,3.09-13.62Z" style="fill: rgb(255, 139, 123); transform-origin: 102.87px 339.92px;" id="elmwrwxqkok5" class="animable"></path><path d="M140.6,210.64s-8.57,10.93-7.84,15.52,14.16,10.18,14.16,10.18l3.41-4.85-8.82-6.44,8.4-9.63Z" style="fill: rgb(255, 139, 123); transform-origin: 141.523px 223.49px;" id="el46m4olh0hot" class="animable"></path><path d="M154.77,199.7c-1.07-.51-5.82-2.41-16.07,10.91,0,0,3.73,4.65,11.72,7.42C150.42,218,159.42,201.87,154.77,199.7Z" style="fill: rgb(38, 50, 56); transform-origin: 147.402px 208.67px;" id="el0800n62nh0li" class="animable"></path><g id="el7u98tem9iw"><path d="M150.42,218s1.5-2.68,3-6c-.24-5.71-.94-12.8-2.94-10.25-2.66,3.38-6.34,10.19-7.55,12.47A31.17,31.17,0,0,0,150.42,218Z" style="opacity: 0.4; transform-origin: 148.175px 209.608px;" class="animable"></path></g><path d="M142.35,244a77.88,77.88,0,0,0,31.9,9.18l-11.56,64.41s-33.34-.11-50.77-16.67C111.92,300.88,118.87,265.78,142.35,244Z" style="fill: rgb(239, 117, 140); transform-origin: 143.085px 280.795px;" id="elzuw7hsfjs7" class="animable"></path><path d="M140.94,244.14s13.35,9.84,34.61,9.17c0,0,12.21-33.78,4.56-45.21-4.73-7.06-22.89-10.25-27.78-8.24C146.44,202.28,149.85,223.46,140.94,244.14Z" style="fill: rgb(38, 50, 56); transform-origin: 161.785px 226.305px;" id="el8k6z35jzfhc" class="animable"></path><g id="elrf75m83giul"><path d="M144.14,278.84l-14.85,32.47a103.09,103.09,0,0,0,16,4.39S145.79,285.37,144.14,278.84Z" style="opacity: 0.1; transform-origin: 137.326px 297.27px;" class="animable"></path></g><g id="el3yphz8hvh8t"><path d="M174.51,213.63l-2.36,1.74a61.52,61.52,0,0,0,8.8,18.39,76,76,0,0,0,1.67-14.33L177.36,215Z" style="opacity: 0.4; transform-origin: 177.385px 223.695px;" class="animable"></path></g><path d="M187.89,218.51l8,11.15L216,231l3.69-3.07a1.54,1.54,0,0,1,.87-.36l10.74-.85a.55.55,0,0,1,.58.58l-.06.91a.56.56,0,0,1-.5.51l-5.09.4-1,5.21a1.59,1.59,0,0,1-1.16,1.23l-4,1a1.47,1.47,0,0,1-.78,0l-2.82-.71s-15.67,3.16-22.86,1.89-14.28-13-14.28-13Z" style="fill: rgb(255, 139, 123); transform-origin: 205.605px 228.275px;" id="elqxyg37c6hwn" class="animable"></path><path d="M178.63,227s-12.88-17.23-4.93-21.23,16.3,13.7,16.3,13.7S186.74,224.45,178.63,227Z" style="fill: rgb(38, 50, 56); transform-origin: 180.554px 216.091px;" id="el4rdqtcyr25g" class="animable"></path><path d="M145.13,403.54a.19.19,0,0,1-.15-.16.21.21,0,0,1,.1-.21c.13-.06,3.08-1.61,4.45-1.17a1,1,0,0,1,.6.48.72.72,0,0,1,0,.85,3.49,3.49,0,0,1-2.45.54A13.49,13.49,0,0,1,145.13,403.54Zm.65-.24c1.53.25,3.62.32,4-.21.06-.06.12-.18,0-.43a.55.55,0,0,0-.37-.29,1.21,1.21,0,0,0-.38-.06A9,9,0,0,0,145.78,403.3Z" style="fill: rgb(239, 117, 140); transform-origin: 147.623px 402.916px;" id="elh3lim8mz385" class="animable"></path><path d="M145,403.53a.18.18,0,0,1-.08-.18c0-.11.32-2.33,1.4-3.16a1.47,1.47,0,0,1,1.11-.29c.54.07.69.35.71.58.14.93-1.92,2.65-2.93,3.06h-.08A.2.2,0,0,1,145,403.53Zm2.28-3.27a1,1,0,0,0-.68.22,4.58,4.58,0,0,0-1.2,2.5c1-.57,2.41-1.92,2.38-2.49,0-.05,0-.19-.38-.23Z" style="fill: rgb(239, 117, 140); transform-origin: 146.532px 401.715px;" id="eleh3accg1cmn" class="animable"></path><path d="M144.33,402.35l-9-.34a.73.73,0,0,0-.73.55l-1.91,7.29a1.21,1.21,0,0,0,.85,1.48.78.78,0,0,0,.26,0c3.26.07,6.16,0,10.22.16,4.79.18,3.55.7,9.18,1,3.39.17,4.15-3.66,2.72-3.9-6.55-1.07-7.16-3.09-9.61-5.54A3,3,0,0,0,144.33,402.35Z" style="fill: rgb(38, 50, 56); transform-origin: 144.627px 407.253px;" id="el8z627k0ajtd" class="animable"></path><path d="M82.71,381.87a.22.22,0,0,1-.06-.22.19.19,0,0,1,.18-.13c.15,0,3.48,0,4.51,1a1.06,1.06,0,0,1,.32.71.73.73,0,0,1-.4.75,3.54,3.54,0,0,1-2.44-.63A14.23,14.23,0,0,1,82.71,381.87Zm.69.08c1.25.91,3.09,1.91,3.69,1.62.08,0,.18-.1.17-.39a.55.55,0,0,0-.2-.43,1.34,1.34,0,0,0-.31-.22A9.13,9.13,0,0,0,83.4,382Z" style="fill: rgb(239, 117, 140); transform-origin: 85.1539px 382.761px;" id="eli6j5im8jpel" class="animable"></path><path d="M82.63,381.81a.18.18,0,0,1,0-.2c.06-.08,1.33-1.93,2.68-2.18a1.46,1.46,0,0,1,1.11.23c.45.31.47.63.38.84-.3.9-2.91,1.51-4,1.42a.12.12,0,0,1-.08,0A.19.19,0,0,1,82.63,381.81Zm3.51-1.88a1,1,0,0,0-.71-.12,4.63,4.63,0,0,0-2.2,1.7c1.2,0,3-.64,3.25-1.15,0-.05.06-.19-.24-.39l-.1,0Z" style="fill: rgb(239, 117, 140); transform-origin: 84.7212px 380.666px;" id="elfejxddiw4kn" class="animable"></path><path d="M82.53,380.45l-7.91-4.38a.73.73,0,0,0-.9.15l-5,5.65a1.21,1.21,0,0,0,.09,1.71l.21.15c2.88,1.53,5.51,2.78,9.06,4.75,4.19,2.32,2.85,2.23,7.74,5,3,1.69,5.36-1.39,4.19-2.25-5.36-3.91-5-6-6.08-9.28A3,3,0,0,0,82.53,380.45Z" style="fill: rgb(38, 50, 56); transform-origin: 79.3622px 384.978px;" id="elsr1e65n7pb9" class="animable"></path><path d="M177,183.24s3-1,1.9-5.35c0,0,1.77-3,1.49-4.59,0,0,9-5.19,3.86-10.88s-14.47-1.89-18.6,5.38c0,0-21.95,7.14-6.67,20.56C173.85,201.47,177,183.24,177,183.24Z" style="fill: rgb(38, 50, 56); transform-origin: 169.704px 176.386px;" id="elefyu7gp9pf" class="animable"></path><path d="M167.94,170.85s-3.43-7.53,1.72-13.22S166.24,165.65,167.94,170.85Z" style="fill: rgb(38, 50, 56); transform-origin: 169.075px 163.561px;" id="elrk371o9x01" class="animable"></path><path d="M177,183.24a2.05,2.05,0,0,0,.25-.1c0-5.64-2.17-12.4-10.49-17a18.76,18.76,0,0,0-1.11,1.68s-.63.21-1.6.61c2.88,3.06,10.79,13.19,1.9,24.26C174.86,195.47,177,183.24,177,183.24Z" style="fill: rgb(239, 117, 140); transform-origin: 170.65px 179.621px;" id="el1st229jdgre" class="animable"></path><path d="M177.35,180.6a5.72,5.72,0,0,1,1.49,4.11c-.11,2-2.07,2.39-3.63,1.31-1.41-1-3.05-3.2-2.17-5A2.58,2.58,0,0,1,177.35,180.6Z" style="fill: rgb(255, 139, 123); transform-origin: 175.819px 183.117px;" id="elscwui2cu53" class="animable"></path><path d="M185.26,178.75l1.62-.08S185.82,179.68,185.26,178.75Z" style="fill: rgb(38, 50, 56); transform-origin: 186.07px 178.907px;" id="elrl2kegdvo2" class="animable"></path><g id="elsy97ufukjgc"><path d="M170.43,193.67a9.93,9.93,0,0,0,3.61,4,28.8,28.8,0,0,0,.91-2.77A13.67,13.67,0,0,1,170.43,193.67Z" style="opacity: 0.2; transform-origin: 172.69px 195.67px;" class="animable"></path></g></g><defs>     <filter id="active" height="200%">         <feMorphology in="SourceAlpha" result="DILATED" operator="dilate" radius="2"></feMorphology>                <feFlood flood-color="#32DFEC" flood-opacity="1" result="PINK"></feFlood>        <feComposite in="PINK" in2="DILATED" operator="in" result="OUTLINE"></feComposite>        <feMerge>            <feMergeNode in="OUTLINE"></feMergeNode>            <feMergeNode in="SourceGraphic"></feMergeNode>        </feMerge>    </filter>    <filter id="hover" height="200%">        <feMorphology in="SourceAlpha" result="DILATED" operator="dilate" radius="2"></feMorphology>                <feFlood flood-color="#ff0000" flood-opacity="0.5" result="PINK"></feFlood>        <feComposite in="PINK" in2="DILATED" operator="in" result="OUTLINE"></feComposite>        <feMerge>            <feMergeNode in="OUTLINE"></feMergeNode>            <feMergeNode in="SourceGraphic"></feMergeNode>        </feMerge>            <feColorMatrix type="matrix" values="0   0   0   0   0                0   1   0   0   0                0   0   0   0   0                0   0   0   1   0 "></feColorMatrix>    </filter></defs></svg>